<?xml version="1.0" encoding="UTF-8"?>
<!DOCTYPE svg PUBLIC "-//W3C//DTD SVG 1.1//EN" "http://www.w3.org/Graphics/SVG/1.1/DTD/svg11.dtd">
<svg width="200px" height="60px" viewBox="0 0 644 217" version="1.1" xmlns="http://www.w3.org/2000/svg">
<g id="#010100ff">
<path fill="#010100" opacity="1.00" d=" M 19.37 4.51 C 21.86 3.88 24.45 3.76 27.01 3.69 C 221.00 3.71 415.00 3.71 609.00 3.69 C 616.32 3.79 624.44 2.80 630.79 7.27 C 637.31 11.46 640.20 19.45 640.01 26.95 C 639.99 81.32 639.99 135.68 640.01 190.05 C 640.08 196.62 638.13 203.59 633.09 208.08 C 628.74 212.05 622.72 213.43 616.98 213.36 C 420.33 213.34 223.67 213.35 27.02 213.36 C 21.27 213.43 15.24 212.06 10.92 208.06 C 5.86 203.59 3.94 196.61 3.99 190.05 C 4.01 138.70 4.00 87.35 3.99 36.00 C 4.07 29.07 3.27 21.75 6.30 15.28 C 8.65 9.88 13.71 5.93 19.37 4.51 M 59.42 38.67 C 54.12 40.05 50.47 45.55 50.66 50.94 C 50.67 87.29 50.70 123.64 50.64 160.00 C 50.74 163.98 50.13 168.24 51.98 171.93 C 54.11 175.86 58.33 178.89 62.94 178.63 C 80.65 178.61 98.36 178.63 116.07 178.62 C 122.73 178.90 128.51 172.58 128.32 166.04 C 128.38 129.70 128.29 93.35 128.37 57.01 C 128.30 53.26 128.75 49.34 127.29 45.78 C 125.60 41.70 121.61 38.27 117.02 38.41 C 99.67 38.35 82.31 38.48 64.96 38.36 C 63.11 38.38 61.25 38.33 59.42 38.67 M 174.44 38.36 C 174.50 45.35 175.01 52.45 173.44 59.31 C 172.37 63.79 170.77 68.66 166.52 71.10 C 166.33 75.32 166.43 79.55 166.89 83.75 C 168.26 83.74 169.64 83.75 171.02 83.75 C 171.30 80.69 171.49 77.62 171.63 74.55 C 179.28 74.40 186.93 74.58 194.58 74.43 C 194.71 77.57 194.90 80.71 195.15 83.85 C 196.61 83.78 198.08 83.71 199.54 83.65 C 199.64 79.22 199.67 74.80 199.68 70.37 C 198.58 70.02 197.48 69.68 196.38 69.34 C 196.18 59.00 196.69 48.65 196.14 38.32 C 188.90 38.38 181.67 38.33 174.44 38.36 M 215.33 48.29 C 205.94 50.83 203.43 63.73 209.24 70.77 C 214.24 77.11 225.41 76.66 229.90 69.95 C 233.19 64.99 233.41 57.96 230.12 52.94 C 227.04 48.20 220.54 46.58 215.33 48.29 M 244.54 50.53 C 237.62 55.65 237.46 67.47 244.38 72.65 C 248.74 76.10 254.69 74.65 259.78 74.43 C 259.64 72.83 259.53 71.23 259.51 69.63 C 256.30 69.99 252.69 71.18 249.75 69.22 C 244.80 66.20 244.19 58.39 248.47 54.52 C 251.43 51.58 255.92 52.86 259.64 52.81 C 259.85 51.49 260.07 50.18 260.30 48.87 C 255.15 47.04 249.02 47.11 244.54 50.53 M 265.37 48.33 C 265.35 49.81 265.32 51.29 265.29 52.78 C 268.07 52.98 270.85 53.14 273.63 53.30 C 273.49 60.34 273.42 67.39 273.63 74.43 C 275.54 74.43 277.45 74.43 279.36 74.44 C 279.56 67.38 279.48 60.32 279.37 53.26 C 282.14 53.12 284.91 52.97 287.68 52.78 C 287.65 51.30 287.63 49.81 287.61 48.33 C 280.20 48.24 272.78 48.25 265.37 48.33 M 291.89 48.24 C 294.27 57.11 299.29 65.06 301.48 73.96 C 300.21 77.72 296.58 79.78 293.53 81.94 C 293.86 83.33 294.19 84.73 294.50 86.14 C 298.01 86.00 301.22 84.11 303.32 81.34 C 307.18 76.26 309.22 70.13 311.39 64.21 C 313.24 58.85 315.60 53.68 317.12 48.21 C 314.97 48.27 312.83 48.34 310.69 48.45 C 308.89 54.56 307.27 60.72 305.05 66.70 C 302.57 60.70 300.69 54.48 298.51 48.37 C 296.30 48.31 294.09 48.27 291.89 48.24 M 324.95 48.28 C 324.71 57.05 324.50 65.86 325.09 74.62 C 326.95 74.61 328.82 74.60 330.69 74.62 C 330.88 67.46 330.60 60.30 330.85 53.15 C 334.45 53.07 338.04 53.06 341.64 53.17 C 341.55 60.27 341.42 67.38 341.68 74.49 C 343.69 74.42 345.71 74.36 347.73 74.30 C 347.65 65.63 347.69 56.96 347.70 48.29 C 340.11 48.26 332.53 48.28 324.95 48.28 M 358.28 48.27 C 358.25 57.05 358.21 65.83 358.31 74.61 C 360.19 74.61 362.08 74.62 363.97 74.65 C 364.26 70.87 364.27 67.08 364.25 63.29 C 367.80 63.28 371.34 63.28 374.89 63.31 C 375.20 67.07 375.25 70.84 375.30 74.62 C 377.21 74.60 379.13 74.60 381.04 74.62 C 381.58 65.84 381.47 57.03 381.12 48.25 C 379.16 48.26 377.20 48.27 375.25 48.27 C 375.22 51.60 375.20 54.92 375.15 58.25 C 371.50 58.43 367.85 58.44 364.21 58.27 C 364.24 54.91 364.22 51.56 364.06 48.21 C 362.13 48.24 360.20 48.26 358.28 48.27 M 398.32 48.44 C 389.91 50.97 387.83 62.24 391.76 69.23 C 395.56 76.28 406.21 77.07 411.85 71.86 C 416.32 67.84 416.63 61.13 415.22 55.68 C 412.94 48.99 404.68 46.09 398.32 48.44 M 440.92 48.41 C 440.49 57.14 440.51 65.91 440.92 74.64 C 446.05 74.66 451.25 75.19 456.33 74.19 C 460.07 73.42 463.83 70.20 463.33 66.06 C 463.09 63.16 460.35 61.74 458.22 60.29 C 459.42 59.10 460.76 58.01 461.64 56.54 C 462.48 53.79 461.44 50.51 458.65 49.37 C 453.06 46.95 446.79 47.80 440.92 48.41 M 378.76 96.88 C 372.01 100.23 367.07 107.30 367.42 115.00 C 367.18 122.48 372.49 128.78 378.69 132.30 C 384.81 136.08 392.54 137.02 397.79 142.20 C 402.53 146.95 401.02 156.06 394.76 158.73 C 386.34 162.29 376.92 159.62 368.95 156.10 C 367.87 159.35 366.91 162.64 366.05 165.95 C 374.50 170.65 384.63 171.27 394.02 169.76 C 402.43 168.34 410.74 162.34 412.50 153.63 C 413.48 147.88 413.12 141.40 409.30 136.68 C 404.23 130.09 395.98 127.55 388.73 124.20 C 384.56 122.22 379.82 119.11 379.63 113.99 C 379.40 109.01 383.89 105.20 388.48 104.41 C 394.94 102.80 401.27 105.46 407.45 106.99 C 408.45 103.79 409.40 100.58 410.01 97.28 C 406.51 95.82 402.88 94.45 399.04 94.41 C 392.25 94.31 384.97 93.54 378.76 96.88 M 182.51 108.31 C 176.36 128.73 168.84 148.73 162.86 169.21 C 166.87 169.35 170.90 169.66 174.90 169.19 C 176.04 168.03 176.29 166.33 176.84 164.86 C 178.50 159.11 180.35 153.41 182.11 147.69 C 190.10 147.38 198.10 147.54 206.09 147.58 C 208.73 154.55 210.33 161.91 213.35 168.73 C 217.37 170.15 221.89 169.14 226.10 169.21 C 218.70 144.47 210.02 120.11 202.04 95.55 C 196.99 95.25 191.93 95.28 186.87 95.45 C 185.21 99.66 183.78 103.96 182.51 108.31 M 423.30 106.16 C 423.26 109.33 423.20 112.50 423.10 115.66 C 420.53 115.77 417.97 115.96 415.42 116.19 C 415.46 118.98 415.45 121.78 415.40 124.57 C 417.99 124.62 420.58 124.67 423.18 124.75 C 423.44 134.80 422.97 144.87 423.40 154.92 C 423.64 159.90 425.24 165.49 429.81 168.18 C 435.24 171.48 441.89 170.51 447.85 169.61 C 447.97 166.45 447.94 163.29 447.97 160.13 C 444.88 160.23 441.45 161.11 438.62 159.44 C 435.62 157.34 435.48 153.32 435.49 150.01 C 435.61 141.58 435.40 133.14 435.64 124.71 C 439.98 124.61 444.32 124.59 448.66 124.65 C 448.62 121.79 448.62 118.93 448.65 116.07 C 444.25 115.70 439.83 115.71 435.42 115.71 C 435.52 111.34 435.53 106.96 435.34 102.58 C 431.25 103.51 427.23 104.72 423.30 106.16 M 254.72 115.91 C 250.64 117.16 247.68 120.37 244.61 123.16 C 244.33 120.76 244.04 118.37 243.75 115.98 C 240.22 115.71 236.69 115.70 233.17 115.86 C 233.56 140.88 233.35 165.91 233.30 190.93 C 237.45 191.22 241.62 191.22 245.77 190.97 C 245.75 182.19 245.54 173.41 245.85 164.63 C 249.97 167.75 254.57 170.95 260.01 170.58 C 269.53 171.36 278.88 165.34 282.62 156.65 C 285.74 149.33 286.21 140.98 284.52 133.25 C 282.99 126.13 278.26 119.63 271.64 116.46 C 266.34 114.12 260.20 114.29 254.72 115.91 M 313.86 116.05 C 309.88 117.34 307.05 120.56 304.08 123.31 C 303.86 120.92 303.67 118.52 303.50 116.12 C 299.91 115.70 296.28 115.68 292.68 115.85 C 292.46 122.91 292.78 129.96 293.24 137.00 C 293.26 154.99 293.30 172.98 293.20 190.97 C 297.22 191.20 301.24 191.20 305.27 191.08 C 305.44 182.08 305.41 173.09 305.24 164.09 C 309.15 168.00 314.31 170.91 320.01 170.58 C 329.01 171.11 337.67 165.69 341.57 157.64 C 344.99 151.35 345.15 143.95 344.64 136.99 C 344.00 129.33 339.85 121.94 333.43 117.65 C 327.62 114.09 320.21 114.01 313.86 116.05 M 471.41 115.58 C 462.75 117.62 455.62 124.59 453.25 133.15 C 450.66 142.76 451.65 153.96 458.14 161.86 C 468.76 174.92 492.14 173.21 500.97 158.93 C 505.66 151.26 506.29 141.55 504.10 132.96 C 502.81 127.42 499.25 122.58 494.64 119.33 C 488.04 114.49 479.19 113.81 471.41 115.58 M 531.37 116.42 C 527.81 118.29 525.77 121.91 523.53 125.08 C 523.35 122.03 523.19 118.98 522.98 115.93 C 519.41 115.71 515.83 115.71 512.26 115.91 C 512.87 133.69 512.38 151.48 512.67 169.26 C 516.71 169.43 520.75 169.43 524.78 169.19 C 524.72 160.45 524.73 151.72 524.70 142.99 C 524.66 137.88 525.77 132.28 529.83 128.79 C 532.82 125.66 537.48 126.37 541.39 125.86 C 541.56 122.15 541.56 118.43 541.36 114.72 C 537.97 114.70 534.39 114.67 531.37 116.42 M 547.64 129.69 C 544.67 135.91 544.93 143.04 545.55 149.72 C 546.87 159.74 555.12 168.12 565.07 169.73 C 573.53 171.03 582.55 170.50 590.49 167.09 C 589.89 164.38 589.32 161.65 588.76 158.93 C 581.87 160.59 574.60 162.02 567.57 160.35 C 561.05 158.63 556.56 152.14 556.97 145.45 C 569.05 145.44 581.14 145.70 593.22 145.34 C 593.88 136.69 592.84 127.00 586.46 120.53 C 580.87 114.53 571.83 113.74 564.21 115.33 C 556.68 116.91 550.67 122.79 547.64 129.69 Z"/>
<path fill="#010100" opacity="1.00" d=" M 180.36 42.61 C 183.49 42.70 186.63 42.69 189.77 42.60 C 190.56 51.58 190.28 60.62 189.98 69.61 C 185.30 69.59 180.62 69.62 175.94 69.56 C 177.00 66.45 178.24 63.40 179.05 60.21 C 180.45 54.45 180.21 48.49 180.36 42.61 Z"/>
<path fill="#010100" opacity="1.00" d=" M 81.68 51.18 C 86.73 50.58 91.82 50.66 96.88 51.13 C 96.75 51.71 96.49 52.86 96.36 53.43 C 91.87 53.46 87.32 53.96 82.87 53.27 C 82.57 52.75 81.98 51.70 81.68 51.18 Z"/>
<path fill="#010100" opacity="1.00" d=" M 217.46 52.45 C 220.45 51.39 223.79 53.13 224.98 55.99 C 227.37 60.60 226.37 67.21 221.82 70.11 C 219.16 71.22 215.61 70.43 214.23 67.75 C 211.26 63.01 211.77 54.89 217.46 52.45 Z"/>
<path fill="#010100" opacity="1.00" d=" M 401.38 52.36 C 404.71 51.41 407.98 53.83 409.00 56.94 C 410.29 60.87 410.07 65.86 406.90 68.86 C 404.85 70.97 400.99 71.31 398.92 69.07 C 395.79 66.41 395.89 61.92 396.36 58.21 C 396.69 55.51 398.78 53.10 401.38 52.36 Z"/>
<path fill="#010100" opacity="1.00" d=" M 446.80 52.15 C 449.74 52.52 454.05 51.24 455.84 54.32 C 456.99 55.84 455.43 57.46 454.04 58.03 C 451.68 58.90 449.13 58.99 446.67 59.30 C 446.68 56.92 446.73 54.53 446.80 52.15 Z"/>
<path fill="#010100" opacity="1.00" d=" M 56.91 61.38 C 78.57 61.40 100.23 61.40 121.88 61.38 C 122.49 68.90 122.07 76.46 122.19 84.00 C 122.11 107.75 122.35 131.50 122.07 155.25 C 100.31 155.54 78.53 155.51 56.77 155.27 C 56.54 127.18 56.79 99.09 56.65 71.01 C 56.63 67.79 56.71 64.58 56.91 61.38 Z"/>
<path fill="#010100" opacity="1.00" d=" M 446.63 62.49 C 449.88 62.78 453.88 62.18 456.38 64.75 C 457.69 66.78 456.38 69.41 454.25 70.18 C 451.86 70.87 449.33 70.63 446.89 70.74 C 446.70 67.99 446.65 65.24 446.63 62.49 Z"/>
<path fill="#010100" opacity="1.00" d=" M 189.89 120.91 C 191.45 116.20 192.01 111.15 194.33 106.70 C 197.09 117.30 200.50 127.70 203.91 138.10 C 197.37 138.23 190.82 138.23 184.27 138.10 C 186.16 132.37 188.05 126.65 189.89 120.91 Z"/>
<path fill="#010100" opacity="1.00" d=" M 565.60 123.74 C 569.68 122.75 574.82 122.66 577.85 126.09 C 580.67 128.88 581.47 132.91 582.01 136.68 C 573.60 136.92 565.18 136.87 556.77 136.72 C 557.71 131.46 560.42 125.92 565.60 123.74 Z"/>
<path fill="#010100" opacity="1.00" d=" M 254.68 124.86 C 258.31 124.04 262.61 123.84 265.77 126.14 C 269.89 129.05 272.45 133.97 272.66 139.00 C 273.03 144.81 272.88 151.20 269.08 155.99 C 264.71 162.46 254.06 162.83 249.15 156.79 C 244.89 152.30 245.66 145.64 245.67 139.95 C 245.58 133.81 248.79 127.26 254.68 124.86 Z"/>
<path fill="#010100" opacity="1.00" d=" M 314.65 124.79 C 319.48 123.46 325.10 124.70 328.24 128.79 C 333.80 135.78 333.74 146.19 330.00 153.99 C 326.32 161.76 314.57 163.62 308.87 157.11 C 304.15 151.96 305.39 144.48 305.40 138.10 C 305.46 132.33 309.26 126.84 314.65 124.79 Z"/>
<path fill="#010100" opacity="1.00" d=" M 474.33 124.22 C 479.32 122.30 485.36 124.21 488.38 128.62 C 494.29 136.98 494.00 149.49 487.42 157.39 C 483.41 162.44 475.13 162.80 470.44 158.54 C 464.65 152.89 463.38 143.95 465.13 136.32 C 466.32 131.29 469.19 126.04 474.33 124.22 Z"/>
<path fill="#010100" opacity="1.00" d=" M 88.43 158.53 C 92.97 157.88 97.71 162.18 96.66 166.88 C 96.05 173.12 86.49 175.07 83.39 169.67 C 79.97 165.54 83.43 159.08 88.43 158.53 Z"/>
</g>
<g id="#fefefeff">
<path fill="#fefefe" opacity="1.00" d=" M 59.42 38.67 C 61.25 38.33 63.11 38.38 64.96 38.36 C 82.31 38.48 99.67 38.35 117.02 38.41 C 121.61 38.27 125.60 41.70 127.29 45.78 C 128.75 49.34 128.30 53.26 128.37 57.01 C 128.29 93.35 128.38 129.70 128.32 166.04 C 128.51 172.58 122.73 178.90 116.07 178.62 C 98.36 178.63 80.65 178.61 62.94 178.63 C 58.33 178.89 54.11 175.86 51.98 171.93 C 50.13 168.24 50.74 163.98 50.64 160.00 C 50.70 123.64 50.67 87.29 50.66 50.94 C 50.47 45.55 54.12 40.05 59.42 38.67 M 81.68 51.18 C 81.98 51.70 82.57 52.75 82.87 53.27 C 87.32 53.96 91.87 53.46 96.36 53.43 C 96.49 52.86 96.75 51.71 96.88 51.13 C 91.82 50.66 86.73 50.58 81.68 51.18 M 56.91 61.38 C 56.71 64.58 56.63 67.79 56.65 71.01 C 56.79 99.09 56.54 127.18 56.77 155.27 C 78.53 155.51 100.31 155.54 122.07 155.25 C 122.35 131.50 122.11 107.75 122.19 84.00 C 122.07 76.46 122.49 68.90 121.88 61.38 C 100.23 61.40 78.57 61.40 56.91 61.38 M 88.43 158.53 C 83.43 159.08 79.97 165.54 83.39 169.67 C 86.49 175.07 96.05 173.12 96.66 166.88 C 97.71 162.18 92.97 157.88 88.43 158.53 Z"/>
<path fill="#fefefe" opacity="1.00" d=" M 174.44 38.36 C 181.67 38.33 188.90 38.38 196.14 38.32 C 196.69 48.65 196.18 59.00 196.38 69.34 C 197.48 69.68 198.58 70.02 199.68 70.37 C 199.67 74.80 199.64 79.22 199.54 83.65 C 198.08 83.71 196.61 83.78 195.15 83.85 C 194.90 80.71 194.71 77.57 194.58 74.43 C 186.93 74.58 179.28 74.40 171.63 74.55 C 171.49 77.62 171.30 80.69 171.02 83.75 C 169.64 83.75 168.26 83.74 166.89 83.75 C 166.43 79.55 166.33 75.32 166.52 71.10 C 170.77 68.66 172.37 63.79 173.44 59.31 C 175.01 52.45 174.50 45.35 174.44 38.36 M 180.36 42.61 C 180.21 48.49 180.45 54.45 179.05 60.21 C 178.24 63.40 177.00 66.45 175.94 69.56 C 180.62 69.62 185.30 69.59 189.98 69.61 C 190.28 60.62 190.56 51.58 189.77 42.60 C 186.63 42.69 183.49 42.70 180.36 42.61 Z"/>
<path fill="#fefefe" opacity="1.00" d=" M 215.33 48.29 C 220.54 46.58 227.04 48.20 230.12 52.94 C 233.41 57.96 233.19 64.99 229.90 69.95 C 225.41 76.66 214.24 77.11 209.24 70.77 C 203.43 63.73 205.94 50.83 215.33 48.29 M 217.46 52.45 C 211.77 54.89 211.26 63.01 214.23 67.75 C 215.61 70.43 219.16 71.22 221.82 70.11 C 226.37 67.21 227.37 60.60 224.98 55.99 C 223.79 53.13 220.45 51.39 217.46 52.45 Z"/>
<path fill="#fefefe" opacity="1.00" d=" M 244.54 50.53 C 249.02 47.11 255.15 47.04 260.30 48.87 C 260.07 50.18 259.85 51.49 259.64 52.81 C 255.92 52.86 251.43 51.58 248.47 54.52 C 244.19 58.39 244.80 66.20 249.75 69.22 C 252.69 71.18 256.30 69.99 259.51 69.63 C 259.53 71.23 259.64 72.83 259.78 74.43 C 254.69 74.65 248.74 76.10 244.38 72.65 C 237.46 67.47 237.62 55.65 244.54 50.53 Z"/>
<path fill="#fefefe" opacity="1.00" d=" M 265.37 48.33 C 272.78 48.25 280.20 48.24 287.61 48.33 C 287.63 49.81 287.65 51.30 287.68 52.78 C 284.91 52.97 282.14 53.12 279.37 53.26 C 279.48 60.32 279.56 67.38 279.36 74.44 C 277.45 74.43 275.54 74.43 273.63 74.43 C 273.42 67.39 273.49 60.34 273.63 53.30 C 270.85 53.14 268.07 52.98 265.29 52.78 C 265.32 51.29 265.35 49.81 265.37 48.33 Z"/>
<path fill="#fefefe" opacity="1.00" d=" M 291.89 48.24 C 294.09 48.27 296.30 48.31 298.51 48.37 C 300.69 54.48 302.57 60.70 305.05 66.70 C 307.27 60.72 308.89 54.56 310.69 48.45 C 312.83 48.34 314.97 48.27 317.12 48.21 C 315.60 53.68 313.24 58.85 311.39 64.21 C 309.22 70.13 307.18 76.26 303.32 81.34 C 301.22 84.11 298.01 86.00 294.50 86.14 C 294.19 84.73 293.86 83.33 293.53 81.94 C 296.58 79.78 300.21 77.72 301.48 73.96 C 299.29 65.06 294.27 57.11 291.89 48.24 Z"/>
<path fill="#fefefe" opacity="1.00" d=" M 324.95 48.28 C 332.53 48.28 340.11 48.26 347.70 48.29 C 347.69 56.96 347.65 65.63 347.73 74.30 C 345.71 74.36 343.69 74.42 341.68 74.49 C 341.42 67.38 341.55 60.27 341.64 53.17 C 338.04 53.06 334.45 53.07 330.85 53.15 C 330.60 60.30 330.88 67.46 330.69 74.62 C 328.82 74.60 326.95 74.61 325.09 74.62 C 324.50 65.86 324.71 57.05 324.95 48.28 Z"/>
<path fill="#fefefe" opacity="1.00" d=" M 358.28 48.27 C 360.20 48.26 362.13 48.24 364.06 48.21 C 364.22 51.56 364.24 54.91 364.21 58.27 C 367.85 58.44 371.50 58.43 375.15 58.25 C 375.20 54.92 375.22 51.60 375.25 48.27 C 377.20 48.27 379.16 48.26 381.12 48.25 C 381.47 57.03 381.58 65.84 381.04 74.62 C 379.13 74.60 377.21 74.60 375.30 74.62 C 375.25 70.84 375.20 67.07 374.89 63.31 C 371.34 63.28 367.80 63.28 364.25 63.29 C 364.27 67.08 364.26 70.87 363.97 74.65 C 362.08 74.62 360.19 74.61 358.31 74.61 C 358.21 65.83 358.25 57.05 358.28 48.27 Z"/>
<path fill="#fefefe" opacity="1.00" d=" M 398.32 48.44 C 404.68 46.09 412.94 48.99 415.22 55.68 C 416.63 61.13 416.32 67.84 411.85 71.86 C 406.21 77.07 395.56 76.28 391.76 69.23 C 387.83 62.24 389.91 50.97 398.32 48.44 M 401.38 52.36 C 398.78 53.10 396.69 55.51 396.36 58.21 C 395.89 61.92 395.79 66.41 398.92 69.07 C 400.99 71.31 404.85 70.97 406.90 68.86 C 410.07 65.86 410.29 60.87 409.00 56.94 C 407.98 53.83 404.71 51.41 401.38 52.36 Z"/>
<path fill="#fefefe" opacity="1.00" d=" M 440.92 48.41 C 446.79 47.80 453.06 46.95 458.65 49.37 C 461.44 50.51 462.48 53.79 461.64 56.54 C 460.76 58.01 459.42 59.10 458.22 60.29 C 460.35 61.74 463.09 63.16 463.33 66.06 C 463.83 70.20 460.07 73.42 456.33 74.19 C 451.25 75.19 446.05 74.66 440.92 74.64 C 440.51 65.91 440.49 57.14 440.92 48.41 M 446.80 52.15 C 446.73 54.53 446.68 56.92 446.67 59.30 C 449.13 58.99 451.68 58.90 454.04 58.03 C 455.43 57.46 456.99 55.84 455.84 54.32 C 454.05 51.24 449.74 52.52 446.80 52.15 M 446.63 62.49 C 446.65 65.24 446.70 67.99 446.89 70.74 C 449.33 70.63 451.86 70.87 454.25 70.18 C 456.38 69.41 457.69 66.78 456.38 64.75 C 453.88 62.18 449.88 62.78 446.63 62.49 Z"/>
<path fill="#fefefe" opacity="1.00" d=" M 378.76 96.88 C 384.97 93.54 392.25 94.31 399.04 94.41 C 402.88 94.45 406.51 95.82 410.01 97.28 C 409.40 100.58 408.45 103.79 407.45 106.99 C 401.27 105.46 394.94 102.80 388.48 104.41 C 383.89 105.20 379.40 109.01 379.63 113.99 C 379.82 119.11 384.56 122.22 388.73 124.20 C 395.98 127.55 404.23 130.09 409.30 136.68 C 413.12 141.40 413.48 147.88 412.50 153.63 C 410.74 162.34 402.43 168.34 394.02 169.76 C 384.63 171.27 374.50 170.65 366.05 165.95 C 366.91 162.64 367.87 159.35 368.95 156.10 C 376.92 159.62 386.34 162.29 394.76 158.73 C 401.02 156.06 402.53 146.95 397.79 142.20 C 392.54 137.02 384.81 136.08 378.69 132.30 C 372.49 128.78 367.18 122.48 367.42 115.00 C 367.07 107.30 372.01 100.23 378.76 96.88 Z"/>
<path fill="#fefefe" opacity="1.00" d=" M 182.51 108.31 C 183.78 103.96 185.21 99.66 186.87 95.45 C 191.93 95.28 196.99 95.25 202.04 95.55 C 210.02 120.11 218.70 144.47 226.10 169.21 C 221.89 169.14 217.37 170.15 213.35 168.73 C 210.33 161.91 208.73 154.55 206.09 147.58 C 198.10 147.54 190.10 147.38 182.11 147.69 C 180.35 153.41 178.50 159.11 176.84 164.86 C 176.29 166.33 176.04 168.03 174.90 169.19 C 170.90 169.66 166.87 169.35 162.86 169.21 C 168.84 148.73 176.36 128.73 182.51 108.31 M 189.89 120.91 C 188.05 126.65 186.16 132.37 184.27 138.10 C 190.82 138.23 197.37 138.23 203.91 138.10 C 200.50 127.70 197.09 117.30 194.33 106.70 C 192.01 111.15 191.45 116.20 189.89 120.91 Z"/>
<path fill="#fefefe" opacity="1.00" d=" M 423.30 106.16 C 427.23 104.72 431.25 103.51 435.34 102.58 C 435.53 106.96 435.52 111.34 435.42 115.71 C 439.83 115.71 444.25 115.70 448.65 116.07 C 448.62 118.93 448.62 121.79 448.66 124.65 C 444.32 124.59 439.98 124.61 435.64 124.71 C 435.40 133.14 435.61 141.58 435.49 150.01 C 435.48 153.32 435.62 157.34 438.62 159.44 C 441.45 161.11 444.88 160.23 447.97 160.13 C 447.94 163.29 447.97 166.45 447.85 169.61 C 441.89 170.51 435.24 171.48 429.81 168.18 C 425.24 165.49 423.64 159.90 423.40 154.92 C 422.97 144.87 423.44 134.80 423.18 124.75 C 420.58 124.67 417.99 124.62 415.40 124.57 C 415.45 121.78 415.46 118.98 415.42 116.19 C 417.97 115.96 420.53 115.77 423.10 115.66 C 423.20 112.50 423.26 109.33 423.30 106.16 Z"/>
<path fill="#fefefe" opacity="1.00" d=" M 254.72 115.91 C 260.20 114.29 266.34 114.12 271.64 116.46 C 278.26 119.63 282.99 126.13 284.52 133.25 C 286.21 140.98 285.74 149.33 282.62 156.65 C 278.88 165.34 269.53 171.36 260.01 170.58 C 254.57 170.95 249.97 167.75 245.85 164.63 C 245.54 173.41 245.75 182.19 245.77 190.97 C 241.62 191.22 237.45 191.22 233.30 190.93 C 233.35 165.91 233.56 140.88 233.17 115.86 C 236.69 115.70 240.22 115.71 243.75 115.98 C 244.04 118.37 244.33 120.76 244.61 123.16 C 247.68 120.37 250.64 117.16 254.72 115.91 M 254.68 124.86 C 248.79 127.26 245.58 133.81 245.67 139.95 C 245.66 145.64 244.89 152.30 249.15 156.79 C 254.06 162.83 264.71 162.46 269.08 155.99 C 272.88 151.20 273.03 144.81 272.66 139.00 C 272.45 133.97 269.89 129.05 265.77 126.14 C 262.61 123.84 258.31 124.04 254.68 124.86 Z"/>
<path fill="#fefefe" opacity="1.00" d=" M 313.86 116.05 C 320.21 114.01 327.62 114.09 333.43 117.65 C 339.85 121.94 344.00 129.33 344.64 136.99 C 345.15 143.95 344.99 151.35 341.57 157.64 C 337.67 165.69 329.01 171.11 320.01 170.58 C 314.31 170.91 309.15 168.00 305.24 164.09 C 305.41 173.09 305.44 182.08 305.27 191.08 C 301.24 191.20 297.22 191.20 293.20 190.97 C 293.30 172.98 293.26 154.99 293.24 137.00 C 292.78 129.96 292.46 122.91 292.68 115.85 C 296.28 115.68 299.91 115.70 303.50 116.12 C 303.67 118.52 303.86 120.92 304.08 123.31 C 307.05 120.56 309.88 117.34 313.86 116.05 M 314.65 124.79 C 309.26 126.84 305.46 132.33 305.40 138.10 C 305.39 144.48 304.15 151.96 308.87 157.11 C 314.57 163.62 326.32 161.76 330.00 153.99 C 333.74 146.19 333.80 135.78 328.24 128.79 C 325.10 124.70 319.48 123.46 314.65 124.79 Z"/>
<path fill="#fefefe" opacity="1.00" d=" M 471.41 115.58 C 479.19 113.81 488.04 114.49 494.64 119.33 C 499.25 122.58 502.81 127.42 504.10 132.96 C 506.29 141.55 505.66 151.26 500.97 158.93 C 492.14 173.21 468.76 174.92 458.14 161.86 C 451.65 153.96 450.66 142.76 453.25 133.15 C 455.62 124.59 462.75 117.62 471.41 115.58 M 474.33 124.22 C 469.19 126.04 466.32 131.29 465.13 136.32 C 463.38 143.95 464.65 152.89 470.44 158.54 C 475.13 162.80 483.41 162.44 487.42 157.39 C 494.00 149.49 494.29 136.98 488.38 128.62 C 485.36 124.21 479.32 122.30 474.33 124.22 Z"/>
<path fill="#fefefe" opacity="1.00" d=" M 531.37 116.42 C 534.39 114.67 537.97 114.70 541.36 114.72 C 541.56 118.43 541.56 122.15 541.39 125.86 C 537.48 126.37 532.82 125.66 529.83 128.79 C 525.77 132.28 524.66 137.88 524.70 142.99 C 524.73 151.72 524.72 160.45 524.78 169.19 C 520.75 169.43 516.71 169.43 512.67 169.26 C 512.38 151.48 512.87 133.69 512.26 115.91 C 515.83 115.71 519.41 115.71 522.98 115.93 C 523.19 118.98 523.35 122.03 523.53 125.08 C 525.77 121.91 527.81 118.29 531.37 116.42 Z"/>
<path fill="#fefefe" opacity="1.00" d=" M 547.64 129.69 C 550.67 122.79 556.68 116.91 564.21 115.33 C 571.83 113.74 580.87 114.53 586.46 120.53 C 592.84 127.00 593.88 136.69 593.22 145.34 C 581.14 145.70 569.05 145.44 556.97 145.45 C 556.56 152.14 561.05 158.63 567.57 160.35 C 574.60 162.02 581.87 160.59 588.76 158.93 C 589.32 161.65 589.89 164.38 590.49 167.09 C 582.55 170.50 573.53 171.03 565.07 169.73 C 555.12 168.12 546.87 159.74 545.55 149.72 C 544.93 143.04 544.67 135.91 547.64 129.69 M 565.60 123.74 C 560.42 125.92 557.71 131.46 556.77 136.72 C 565.18 136.87 573.60 136.92 582.01 136.68 C 581.47 132.91 580.67 128.88 577.85 126.09 C 574.82 122.66 569.68 122.75 565.60 123.74 Z"/>
</g>
</svg>
