<?xml version="1.0" encoding="UTF-8"?>
<!DOCTYPE svg PUBLIC "-//W3C//DTD SVG 1.1//EN" "http://www.w3.org/Graphics/SVG/1.1/DTD/svg11.dtd">
<svg width="200px" height="60px" viewBox="0 0 644 217" version="1.1" xmlns="http://www.w3.org/2000/svg">
<g id="#1f1f1fff">
<path fill="#1f1f1f" opacity="1.00" d=" M 23.68 2.84 C 29.02 1.51 34.56 2.02 40.00 2.04 C 228.33 2.02 416.67 2.04 605.00 2.03 C 610.11 1.97 615.31 1.59 620.32 2.84 C 597.88 3.37 575.44 2.94 553.00 3.08 C 381.67 3.09 210.33 3.05 39.00 3.10 C 33.89 3.19 28.79 2.89 23.68 2.84 Z"/>
</g>
<g id="#000000ff">
<path fill="#000000" opacity="1.00" d=" M 6.88 26.78 C 7.25 16.57 13.39 5.70 23.68 2.84 C 28.79 2.89 33.89 3.19 39.00 3.10 C 210.33 3.05 381.67 3.09 553.00 3.08 C 575.44 2.94 597.88 3.37 620.32 2.84 C 625.06 3.95 628.94 7.37 631.83 11.16 C 633.93 14.09 635.95 17.44 635.96 21.15 C 635.74 22.16 635.94 23.08 636.57 23.91 C 636.72 24.58 637.02 25.93 637.17 26.60 C 636.84 54.07 637.09 81.53 637.01 109.00 C 637.09 135.80 636.84 162.60 637.17 189.40 C 637.02 190.07 636.72 191.42 636.57 192.09 C 635.94 192.92 635.73 193.83 635.96 194.85 C 635.04 203.14 628.35 210.86 620.32 213.13 C 572.22 212.70 524.11 213.06 476.00 212.94 C 339.00 212.94 202.00 212.95 65.00 212.94 C 51.22 213.05 37.45 212.72 23.68 213.13 C 18.93 212.06 15.06 208.62 12.17 204.84 C 10.07 201.91 8.04 198.56 8.04 194.85 C 8.26 193.83 8.05 192.91 7.43 192.09 C 7.28 191.42 6.98 190.07 6.83 189.40 C 7.12 135.20 7.03 80.99 6.88 26.78 M 163.71 31.35 C 163.35 39.14 164.10 47.18 161.64 54.70 C 161.09 56.74 159.08 57.74 157.61 59.05 C 157.58 62.70 157.58 66.35 157.62 70.00 C 159.41 70.00 161.19 70.00 162.98 70.00 C 162.99 67.66 163.00 65.33 163.03 62.99 C 169.68 63.01 176.32 62.99 182.97 63.00 C 182.99 65.33 183.00 67.67 183.02 70.00 C 184.80 70.00 186.59 70.00 188.37 70.00 C 188.43 67.32 188.55 64.63 188.40 61.95 C 188.39 58.72 185.65 56.28 185.64 53.05 C 185.46 45.82 185.67 38.59 185.63 31.36 C 178.32 31.41 171.01 31.42 163.71 31.35 M 201.48 39.68 C 192.75 41.37 189.94 53.30 195.32 59.69 C 199.58 64.47 207.93 65.13 212.58 60.56 C 217.50 56.13 217.69 47.63 213.13 42.89 C 210.23 39.75 205.55 38.72 201.48 39.68 M 221.73 43.71 C 218.96 48.11 218.88 54.06 221.32 58.62 C 224.25 63.81 231.45 64.85 236.52 62.45 C 239.37 61.08 240.59 57.96 242.00 55.33 C 240.07 55.04 238.14 54.75 236.21 54.48 C 234.59 56.28 233.15 59.65 230.18 58.92 C 226.94 58.44 225.78 54.82 225.76 51.98 C 225.66 49.16 226.13 45.32 229.24 44.28 C 232.07 43.05 234.06 45.98 235.98 47.53 C 237.77 47.23 239.56 46.91 241.36 46.59 C 239.91 44.19 238.61 41.26 235.77 40.24 C 231.04 38.39 224.71 39.25 221.73 43.71 M 357.48 39.68 C 348.75 41.36 345.94 53.29 351.32 59.69 C 355.58 64.46 363.92 65.13 368.58 60.56 C 373.50 56.13 373.69 47.63 369.13 42.89 C 366.23 39.75 361.56 38.72 357.48 39.68 M 422.71 39.89 C 419.39 40.57 418.10 43.96 416.77 46.64 C 419.36 46.76 422.10 46.88 424.28 45.22 C 425.96 43.86 428.07 44.42 430.03 44.61 C 430.08 45.47 430.17 47.20 430.21 48.07 C 426.51 49.01 422.59 49.42 419.18 51.24 C 414.94 53.74 415.63 60.89 420.07 62.82 C 423.26 64.59 426.76 62.69 430.07 62.44 C 432.54 62.51 434.99 62.97 437.46 63.18 C 435.38 56.46 437.58 49.23 435.42 42.58 C 432.59 38.76 426.90 38.94 422.71 39.89 M 243.12 40.07 C 243.14 41.58 243.17 43.10 243.19 44.61 C 245.57 44.62 247.96 44.63 250.35 44.66 C 250.42 50.76 250.41 56.86 250.37 62.97 C 252.45 62.97 254.54 62.97 256.63 62.97 C 256.59 56.86 256.58 50.76 256.65 44.66 C 259.03 44.62 261.42 44.62 263.81 44.61 C 263.83 43.10 263.85 41.58 263.88 40.07 C 256.96 39.96 250.04 39.96 243.12 40.07 M 267.26 40.01 C 269.64 47.81 273.31 55.20 275.33 63.10 C 275.70 66.76 271.67 67.62 268.90 67.99 C 268.92 68.75 268.97 70.26 268.99 71.02 C 272.29 71.01 275.59 70.98 278.89 70.83 C 283.66 60.90 286.59 50.22 290.65 40.00 C 288.41 40.00 286.16 40.00 283.92 39.99 C 282.18 45.32 280.54 50.68 278.81 56.01 C 277.26 50.65 275.57 45.34 273.87 40.02 C 271.67 40.01 269.46 40.01 267.26 40.01 M 295.01 40.00 C 295.00 47.67 294.99 55.33 295.01 63.00 C 297.00 63.00 298.99 63.00 300.99 63.00 C 301.01 56.88 300.99 50.75 301.01 44.63 C 303.67 44.61 306.33 44.61 308.99 44.63 C 309.01 50.75 308.99 56.88 309.01 63.00 C 311.00 63.00 312.99 63.00 314.99 63.00 C 315.01 55.34 315.00 47.67 315.00 40.01 C 308.33 39.99 301.67 40.00 295.01 40.00 M 323.02 40.00 C 322.99 47.67 322.99 55.33 323.01 63.00 C 325.00 63.00 326.99 63.00 328.98 63.00 C 328.99 59.67 329.00 56.33 329.01 53.00 C 331.79 53.00 334.57 53.00 337.36 53.00 C 337.39 56.33 337.39 59.65 337.38 62.98 C 339.46 62.98 341.55 62.98 343.63 62.97 C 343.59 55.32 343.59 47.68 343.63 40.03 C 341.55 40.02 339.47 40.02 337.39 40.02 C 337.39 42.80 337.37 45.58 337.35 48.36 C 334.57 48.39 331.80 48.39 329.03 48.37 C 329.01 45.58 328.99 42.79 328.97 40.00 C 326.98 40.00 325.00 40.00 323.02 40.00 M 391.02 40.00 C 390.99 47.67 390.99 55.33 391.01 63.00 C 393.00 63.00 394.99 63.00 396.98 63.00 C 396.99 59.67 397.00 56.33 397.02 53.00 C 399.79 53.00 402.57 53.00 405.36 53.00 C 405.38 56.33 405.39 59.65 405.38 62.98 C 407.46 62.98 409.55 62.98 411.63 62.97 C 411.59 55.32 411.59 47.68 411.63 40.03 C 409.55 40.02 407.47 40.02 405.39 40.02 C 405.39 42.80 405.37 45.58 405.35 48.36 C 402.57 48.39 399.80 48.39 397.03 48.37 C 397.01 45.58 396.99 42.79 396.97 40.00 C 394.98 40.00 393.00 40.00 391.02 40.00 M 28.34 69.96 C 27.04 72.09 25.49 74.29 25.58 76.91 C 25.37 83.53 25.62 90.16 25.62 96.79 C 25.53 102.10 25.53 107.42 25.53 112.73 C 25.57 117.36 25.54 121.99 25.49 126.62 C 25.57 130.28 25.55 133.95 25.49 137.62 C 25.56 141.65 25.54 145.67 25.51 149.70 C 25.60 157.48 25.49 165.26 25.47 173.04 C 25.17 176.24 26.35 179.24 28.14 181.83 C 31.38 181.21 34.53 180.10 37.34 178.35 C 43.31 174.68 49.34 171.12 55.39 167.60 C 60.92 163.95 67.17 161.38 72.29 157.13 C 80.31 153.36 87.69 148.39 95.35 143.95 C 102.02 140.09 108.64 136.14 115.31 132.28 C 117.31 130.99 119.62 129.81 120.76 127.61 C 121.65 125.87 120.83 123.76 119.44 122.56 C 116.22 119.82 112.33 118.05 108.69 115.96 C 104.33 113.19 99.87 110.58 95.38 108.03 C 89.26 104.36 83.11 100.73 76.94 97.13 C 69.73 92.88 62.62 88.42 55.22 84.48 C 49.62 80.75 43.69 77.56 37.98 74.00 C 35.03 72.11 31.77 70.73 28.34 69.96 M 154.91 101.88 C 149.20 111.17 147.93 122.87 150.85 133.31 C 153.89 143.76 161.48 152.96 171.50 157.38 C 183.61 162.70 199.18 160.20 208.04 150.06 C 215.90 141.81 217.53 129.74 216.56 118.83 C 205.85 118.61 195.13 118.66 184.42 118.79 C 184.46 122.25 184.46 125.71 184.42 129.17 C 191.99 129.34 199.56 129.16 207.12 129.33 C 206.15 134.26 204.80 139.45 201.02 143.03 C 193.49 150.91 180.24 151.75 171.40 145.61 C 160.88 138.54 157.27 123.95 161.34 112.27 C 164.55 102.29 174.28 94.34 185.01 94.76 C 191.36 94.67 196.95 98.09 201.73 101.94 C 203.83 99.52 205.98 97.14 208.16 94.80 C 201.34 87.36 191.08 83.26 181.00 84.56 C 170.16 85.65 160.37 92.56 154.91 101.88 M 371.76 88.16 C 371.69 111.87 371.71 135.57 371.75 159.27 C 375.01 159.26 378.28 159.25 381.55 159.18 C 381.46 135.52 381.47 111.87 381.55 88.21 C 378.28 88.20 375.02 88.19 371.76 88.16 M 452.24 88.19 C 452.25 111.68 452.23 135.17 452.25 158.66 C 455.58 158.64 458.91 158.64 462.24 158.67 C 462.39 149.82 462.32 140.97 462.29 132.13 C 467.22 132.05 472.17 132.33 477.10 131.91 C 484.58 131.30 491.56 126.37 494.52 119.45 C 497.63 112.64 497.07 104.31 493.07 97.98 C 489.47 92.21 482.89 88.31 476.06 88.24 C 468.12 88.08 460.17 88.26 452.24 88.19 M 504.42 88.22 C 504.50 111.69 504.52 135.16 504.41 158.63 C 507.89 158.63 511.36 158.64 514.84 158.66 C 515.57 147.45 515.03 136.22 515.19 125.00 C 515.03 112.73 515.55 100.44 514.88 88.19 C 511.39 88.19 507.91 88.20 504.42 88.22 M 535.20 109.35 C 530.09 110.95 526.38 115.10 523.86 119.66 C 526.87 121.12 529.92 122.53 532.96 123.93 C 536.20 119.74 541.64 117.04 546.89 119.06 C 551.30 120.11 553.60 124.31 554.45 128.44 C 550.70 127.45 546.95 126.13 543.02 126.20 C 536.33 126.04 529.33 128.85 525.43 134.44 C 521.43 140.12 521.90 148.35 526.26 153.70 C 530.78 159.51 539.17 161.73 546.06 159.29 C 549.22 158.16 551.57 155.66 554.08 153.55 C 554.19 155.26 554.30 156.98 554.41 158.70 C 557.70 158.64 560.99 158.64 564.28 158.66 C 564.43 149.10 564.35 139.54 564.38 129.98 C 564.45 124.07 562.73 117.82 558.27 113.71 C 552.27 107.91 542.91 106.96 535.20 109.35 M 239.42 111.63 C 231.49 113.33 225.01 119.76 222.75 127.48 C 219.38 138.11 223.23 151.10 233.11 156.86 C 240.92 161.53 251.73 160.66 258.53 154.51 C 269.49 145.08 269.49 125.91 258.55 116.46 C 253.41 111.91 246.10 110.15 239.42 111.63 M 288.39 111.61 C 282.18 112.96 276.70 117.18 273.71 122.77 C 268.93 131.38 269.56 142.66 275.29 150.66 C 279.29 156.29 286.04 159.99 293.01 159.81 C 300.23 160.01 307.28 156.17 311.28 150.20 C 317.99 140.65 317.13 126.46 309.03 117.98 C 303.90 112.39 295.76 109.99 288.39 111.61 M 321.05 139.08 C 322.27 149.87 331.61 160.30 343.01 159.79 C 347.46 159.92 351.16 157.22 354.66 154.84 C 354.50 159.02 354.65 163.53 352.24 167.17 C 349.03 172.53 340.94 173.65 336.10 169.90 C 333.92 168.20 332.48 165.78 330.87 163.58 C 328.10 164.84 325.34 166.11 322.58 167.39 C 324.60 171.72 327.31 175.94 331.48 178.49 C 339.81 183.93 352.33 182.54 358.63 174.60 C 363.60 168.61 363.86 160.42 364.14 153.01 C 364.18 139.55 364.19 126.09 364.12 112.63 C 361.03 112.59 357.95 112.58 354.87 112.57 C 354.73 113.43 354.46 115.13 354.32 115.98 C 350.31 112.80 345.37 110.32 340.10 111.28 C 327.39 113.01 319.06 126.87 321.05 139.08 M 398.66 113.68 C 384.26 122.30 383.69 146.14 397.11 155.93 C 402.58 160.04 410.12 160.81 416.53 158.69 C 421.44 157.13 425.00 153.24 428.35 149.53 C 425.96 147.50 423.46 145.59 420.98 143.68 C 417.61 147.23 413.33 151.10 408.01 150.17 C 403.62 149.97 400.72 146.41 398.45 143.08 C 408.44 138.21 418.82 134.17 428.75 129.18 C 426.60 123.82 424.11 118.18 419.26 114.71 C 413.43 110.25 404.92 109.98 398.66 113.68 M 568.28 110.84 C 573.87 125.40 579.83 139.82 585.81 154.21 C 586.49 155.79 586.93 157.56 586.09 159.18 C 583.11 166.53 579.50 173.62 576.76 181.07 C 580.43 181.13 584.10 181.11 587.76 180.94 C 597.04 157.55 606.64 134.29 615.76 110.84 C 611.86 110.76 607.97 110.76 604.09 110.80 C 600.18 121.79 596.49 132.86 592.14 143.67 C 587.69 132.99 584.14 121.94 579.51 111.34 C 575.87 110.25 572.01 110.87 568.28 110.84 Z"/>
<path fill="#000000" opacity="1.00" d=" M 169.91 36.83 C 172.93 36.82 175.96 36.82 178.98 36.83 C 179.01 43.76 179.04 50.70 178.94 57.63 C 175.08 57.57 171.21 57.57 167.35 57.63 C 169.35 50.88 169.85 43.83 169.91 36.83 Z"/>
<path fill="#000000" opacity="1.00" d=" M 202.48 44.46 C 206.06 42.75 209.63 46.48 209.55 49.99 C 210.22 53.75 208.58 59.05 204.02 59.02 C 197.50 57.94 196.89 47.16 202.48 44.46 Z"/>
<path fill="#000000" opacity="1.00" d=" M 358.48 44.46 C 362.06 42.75 365.62 46.48 365.55 49.99 C 366.22 53.74 364.58 59.04 360.02 59.02 C 353.49 57.94 352.89 47.15 358.48 44.46 Z"/>
<path fill="#000000" opacity="1.00" d=" M 423.23 54.49 C 425.52 53.38 428.05 52.98 430.51 52.42 C 429.94 54.88 430.05 58.50 426.85 59.03 C 424.14 60.21 421.28 56.85 423.23 54.49 Z"/>
<path fill="#000000" opacity="1.00" d=" M 462.30 98.80 C 467.98 98.94 473.88 97.91 479.40 99.60 C 488.04 102.93 488.07 117.02 479.53 120.48 C 473.98 122.23 468.01 121.16 462.28 121.28 C 462.35 113.79 462.32 106.30 462.30 98.80 Z"/>
<path fill="#000000" opacity="1.00" d=" M 240.40 121.41 C 248.38 118.30 256.81 125.96 256.74 133.97 C 257.61 140.67 253.72 148.17 246.91 149.90 C 240.84 151.56 234.51 147.26 232.62 141.51 C 229.81 134.20 232.55 124.23 240.40 121.41 Z"/>
<path fill="#000000" opacity="1.00" d=" M 289.39 121.39 C 296.41 118.70 304.09 124.44 305.34 131.44 C 307.07 138.54 303.93 147.35 296.52 149.69 C 290.32 151.89 283.54 147.49 281.52 141.57 C 278.51 134.25 281.52 124.14 289.39 121.39 Z"/>
<path fill="#000000" opacity="1.00" d=" M 339.41 121.46 C 343.09 119.91 347.51 120.94 350.42 123.58 C 357.10 129.85 357.00 142.02 349.87 147.90 C 345.79 151.25 339.53 150.86 335.71 147.30 C 327.92 140.49 329.48 125.45 339.41 121.46 Z"/>
<path fill="#000000" opacity="1.00" d=" M 396.80 134.76 C 397.04 128.87 400.06 122.56 406.17 120.93 C 410.51 119.39 414.68 122.07 417.30 125.37 C 410.58 128.74 403.66 131.68 396.80 134.76 Z"/>
<path fill="#000000" opacity="1.00" d=" M 537.15 137.22 C 542.55 134.22 549.14 135.38 554.46 137.97 C 553.22 141.54 551.91 145.45 548.61 147.65 C 544.65 150.71 538.31 151.08 534.74 147.23 C 532.04 144.12 533.67 139.01 537.15 137.22 Z"/>
</g>
<g id="#535352d9">
<path fill="#535352" opacity="0.85" d=" M 635.96 21.15 C 637.63 21.74 637.84 22.66 636.57 23.91 C 635.94 23.08 635.74 22.16 635.96 21.15 Z"/>
<path fill="#535352" opacity="0.85" d=" M 7.43 192.09 C 8.05 192.91 8.26 193.83 8.04 194.85 C 6.36 194.26 6.15 193.34 7.43 192.09 Z"/>
<path fill="#535352" opacity="0.85" d=" M 635.96 194.85 C 635.73 193.83 635.94 192.92 636.57 192.09 C 637.84 193.34 637.63 194.26 635.96 194.85 Z"/>
</g>
<g id="#35353546">
<path fill="#353535" opacity="0.27" d=" M 6.00 46.99 C 6.03 40.25 5.40 33.43 6.88 26.78 C 7.03 80.99 7.12 135.20 6.83 189.40 C 6.34 186.63 5.99 183.84 5.93 181.03 C 6.07 136.35 5.94 91.67 6.00 46.99 Z"/>
<path fill="#353535" opacity="0.27" d=" M 637.17 26.60 C 637.65 29.37 638.01 32.16 638.07 34.98 C 637.92 79.31 638.07 123.66 638.00 168.00 C 637.93 175.13 638.60 182.35 637.17 189.40 C 636.84 162.60 637.09 135.80 637.01 109.00 C 637.09 81.53 636.84 54.07 637.17 26.60 Z"/>
</g>
<g id="#fffbfbff">
<path fill="#fffbfb" opacity="1.00" d=" M 163.71 31.35 C 171.01 31.42 178.32 31.41 185.63 31.36 C 185.67 38.59 185.46 45.82 185.64 53.05 C 185.65 56.28 188.39 58.72 188.40 61.95 C 188.55 64.63 188.43 67.32 188.37 70.00 C 186.59 70.00 184.80 70.00 183.02 70.00 C 183.00 67.67 182.99 65.33 182.97 63.00 C 176.32 62.99 169.68 63.01 163.03 62.99 C 163.00 65.33 162.99 67.66 162.98 70.00 C 161.19 70.00 159.41 70.00 157.62 70.00 C 157.58 66.35 157.58 62.70 157.61 59.05 C 159.08 57.74 161.09 56.74 161.64 54.70 C 164.10 47.18 163.35 39.14 163.71 31.35 M 169.91 36.83 C 169.85 43.83 169.35 50.88 167.35 57.63 C 171.21 57.57 175.08 57.57 178.94 57.63 C 179.04 50.70 179.01 43.76 178.98 36.83 C 175.96 36.82 172.93 36.82 169.91 36.83 Z"/>
<path fill="#fffbfb" opacity="1.00" d=" M 201.48 39.68 C 205.55 38.72 210.23 39.75 213.13 42.89 C 217.69 47.63 217.50 56.13 212.58 60.56 C 207.93 65.13 199.58 64.47 195.32 59.69 C 189.94 53.30 192.75 41.37 201.48 39.68 M 202.48 44.46 C 196.89 47.16 197.50 57.94 204.02 59.02 C 208.58 59.05 210.22 53.75 209.55 49.99 C 209.63 46.48 206.06 42.75 202.48 44.46 Z"/>
<path fill="#fffbfb" opacity="1.00" d=" M 221.73 43.71 C 224.71 39.25 231.04 38.39 235.77 40.24 C 238.61 41.26 239.91 44.19 241.36 46.59 C 239.56 46.91 237.77 47.23 235.98 47.53 C 234.06 45.98 232.07 43.05 229.24 44.28 C 226.13 45.32 225.66 49.16 225.76 51.98 C 225.78 54.82 226.94 58.44 230.18 58.92 C 233.15 59.65 234.59 56.28 236.21 54.48 C 238.14 54.75 240.07 55.04 242.00 55.33 C 240.59 57.96 239.37 61.08 236.52 62.45 C 231.45 64.85 224.25 63.81 221.32 58.62 C 218.88 54.06 218.96 48.11 221.73 43.71 Z"/>
<path fill="#fffbfb" opacity="1.00" d=" M 357.48 39.68 C 361.56 38.72 366.23 39.75 369.13 42.89 C 373.69 47.63 373.50 56.13 368.58 60.56 C 363.92 65.13 355.58 64.46 351.32 59.69 C 345.94 53.29 348.75 41.36 357.48 39.68 M 358.48 44.46 C 352.89 47.15 353.49 57.94 360.02 59.02 C 364.58 59.04 366.22 53.74 365.55 49.99 C 365.62 46.48 362.06 42.75 358.48 44.46 Z"/>
<path fill="#fffbfb" opacity="1.00" d=" M 422.71 39.89 C 426.90 38.94 432.59 38.76 435.42 42.58 C 437.58 49.23 435.38 56.46 437.46 63.18 C 434.99 62.97 432.54 62.51 430.07 62.44 C 426.76 62.69 423.26 64.59 420.07 62.82 C 415.63 60.89 414.94 53.74 419.18 51.24 C 422.59 49.42 426.51 49.01 430.21 48.07 C 430.17 47.20 430.08 45.47 430.03 44.61 C 428.07 44.42 425.96 43.86 424.28 45.22 C 422.10 46.88 419.36 46.76 416.77 46.64 C 418.10 43.96 419.39 40.57 422.71 39.89 M 423.23 54.49 C 421.28 56.85 424.14 60.21 426.85 59.03 C 430.05 58.50 429.94 54.88 430.51 52.42 C 428.05 52.98 425.52 53.38 423.23 54.49 Z"/>
<path fill="#fffbfb" opacity="1.00" d=" M 243.12 40.07 C 250.04 39.96 256.96 39.96 263.88 40.07 C 263.85 41.58 263.83 43.10 263.81 44.61 C 261.42 44.62 259.03 44.62 256.65 44.66 C 256.58 50.76 256.59 56.86 256.63 62.97 C 254.54 62.97 252.45 62.97 250.37 62.97 C 250.41 56.86 250.42 50.76 250.35 44.66 C 247.96 44.63 245.57 44.62 243.19 44.61 C 243.17 43.10 243.14 41.58 243.12 40.07 Z"/>
<path fill="#fffbfb" opacity="1.00" d=" M 267.26 40.01 C 269.46 40.01 271.67 40.01 273.87 40.02 C 275.57 45.34 277.26 50.65 278.81 56.01 C 280.54 50.68 282.18 45.32 283.92 39.99 C 286.16 40.00 288.41 40.00 290.65 40.00 C 286.59 50.22 283.66 60.90 278.89 70.83 C 275.59 70.98 272.29 71.01 268.99 71.02 C 268.97 70.26 268.92 68.75 268.90 67.99 C 271.67 67.62 275.70 66.76 275.33 63.10 C 273.31 55.20 269.64 47.81 267.26 40.01 Z"/>
<path fill="#fffbfb" opacity="1.00" d=" M 295.01 40.00 C 301.67 40.00 308.33 39.99 315.00 40.01 C 315.00 47.67 315.01 55.34 314.99 63.00 C 312.99 63.00 311.00 63.00 309.01 63.00 C 308.99 56.88 309.01 50.75 308.99 44.63 C 306.33 44.61 303.67 44.61 301.01 44.63 C 300.99 50.75 301.01 56.88 300.99 63.00 C 298.99 63.00 297.00 63.00 295.01 63.00 C 294.99 55.33 295.00 47.67 295.01 40.00 Z"/>
<path fill="#fffbfb" opacity="1.00" d=" M 323.02 40.00 C 325.00 40.00 326.98 40.00 328.97 40.00 C 328.99 42.79 329.01 45.58 329.03 48.37 C 331.80 48.39 334.57 48.39 337.35 48.36 C 337.37 45.58 337.39 42.80 337.39 40.02 C 339.47 40.02 341.55 40.02 343.63 40.03 C 343.59 47.68 343.59 55.32 343.63 62.97 C 341.55 62.98 339.46 62.98 337.38 62.98 C 337.39 59.65 337.39 56.33 337.36 53.00 C 334.57 53.00 331.79 53.00 329.01 53.00 C 329.00 56.33 328.99 59.67 328.98 63.00 C 326.99 63.00 325.00 63.00 323.01 63.00 C 322.99 55.33 322.99 47.67 323.02 40.00 Z"/>
<path fill="#fffbfb" opacity="1.00" d=" M 391.02 40.00 C 393.00 40.00 394.98 40.00 396.97 40.00 C 396.99 42.79 397.01 45.58 397.03 48.37 C 399.80 48.39 402.57 48.39 405.35 48.36 C 405.37 45.58 405.39 42.80 405.39 40.02 C 407.47 40.02 409.55 40.02 411.63 40.03 C 411.59 47.68 411.59 55.32 411.63 62.97 C 409.55 62.98 407.46 62.98 405.38 62.98 C 405.39 59.65 405.38 56.33 405.36 53.00 C 402.57 53.00 399.79 53.00 397.02 53.00 C 397.00 56.33 396.99 59.67 396.98 63.00 C 394.99 63.00 393.00 63.00 391.01 63.00 C 390.99 55.33 390.99 47.67 391.02 40.00 Z"/>
</g>
<g id="#77d6b3ff">
<path fill="#77d6b3" opacity="1.00" d=" M 28.34 69.96 C 31.77 70.73 35.03 72.11 37.98 74.00 C 43.69 77.56 49.62 80.75 55.22 84.48 C 52.22 86.84 48.64 88.27 44.85 88.73 C 39.27 82.55 33.57 76.46 28.34 69.96 Z"/>
</g>
<g id="#3999bcff">
<path fill="#3999bc" opacity="1.00" d=" M 25.58 76.91 C 25.49 74.29 27.04 72.09 28.34 69.96 C 33.57 76.46 39.27 82.55 44.85 88.73 C 46.09 90.08 47.33 91.42 48.56 92.76 C 41.07 94.82 33.49 97.28 25.62 96.79 C 25.62 90.16 25.37 83.53 25.58 76.91 Z"/>
</g>
<g id="#98e5abff">
<path fill="#98e5ab" opacity="1.00" d=" M 55.22 84.48 C 62.62 88.42 69.73 92.88 76.94 97.13 C 75.19 98.97 73.54 101.23 70.94 101.87 C 66.97 103.01 62.84 103.30 58.76 103.83 C 55.33 100.17 51.95 96.46 48.56 92.76 C 47.33 91.42 46.09 90.08 44.85 88.73 C 48.64 88.27 52.22 86.84 55.22 84.48 Z"/>
</g>
<g id="#ffffffff">
<path fill="#ffffff" opacity="1.00" d=" M 154.91 101.88 C 160.37 92.56 170.16 85.65 181.00 84.56 C 191.08 83.26 201.34 87.36 208.16 94.80 C 205.98 97.14 203.83 99.52 201.73 101.94 C 196.95 98.09 191.36 94.67 185.01 94.76 C 174.28 94.34 164.55 102.29 161.34 112.27 C 157.27 123.95 160.88 138.54 171.40 145.61 C 180.24 151.75 193.49 150.91 201.02 143.03 C 204.80 139.45 206.15 134.26 207.12 129.33 C 199.56 129.16 191.99 129.34 184.42 129.17 C 184.46 125.71 184.46 122.25 184.42 118.79 C 195.13 118.66 205.85 118.61 216.56 118.83 C 217.53 129.74 215.90 141.81 208.04 150.06 C 199.18 160.20 183.61 162.70 171.50 157.38 C 161.48 152.96 153.89 143.76 150.85 133.31 C 147.93 122.87 149.20 111.17 154.91 101.88 Z"/>
<path fill="#ffffff" opacity="1.00" d=" M 371.76 88.16 C 375.02 88.19 378.28 88.20 381.55 88.21 C 381.47 111.87 381.46 135.52 381.55 159.18 C 378.28 159.25 375.01 159.26 371.75 159.27 C 371.71 135.57 371.69 111.87 371.76 88.16 Z"/>
<path fill="#ffffff" opacity="1.00" d=" M 452.24 88.19 C 460.17 88.26 468.12 88.08 476.06 88.24 C 482.89 88.31 489.47 92.21 493.07 97.98 C 497.07 104.31 497.63 112.64 494.52 119.45 C 491.56 126.37 484.58 131.30 477.10 131.91 C 472.17 132.33 467.22 132.05 462.29 132.13 C 462.32 140.97 462.39 149.82 462.24 158.67 C 458.91 158.64 455.58 158.64 452.25 158.66 C 452.23 135.17 452.25 111.68 452.24 88.19 M 462.30 98.80 C 462.32 106.30 462.35 113.79 462.28 121.28 C 468.01 121.16 473.98 122.23 479.53 120.48 C 488.07 117.02 488.04 102.93 479.40 99.60 C 473.88 97.91 467.98 98.94 462.30 98.80 Z"/>
<path fill="#ffffff" opacity="1.00" d=" M 504.42 88.22 C 507.91 88.20 511.39 88.19 514.88 88.19 C 515.55 100.44 515.03 112.73 515.19 125.00 C 515.03 136.22 515.57 147.45 514.84 158.66 C 511.36 158.64 507.89 158.63 504.41 158.63 C 504.52 135.16 504.50 111.69 504.42 88.22 Z"/>
<path fill="#ffffff" opacity="1.00" d=" M 535.20 109.35 C 542.91 106.96 552.27 107.91 558.27 113.71 C 562.73 117.82 564.45 124.07 564.38 129.98 C 564.35 139.54 564.43 149.10 564.28 158.66 C 560.99 158.64 557.70 158.64 554.41 158.70 C 554.30 156.98 554.19 155.26 554.08 153.55 C 551.57 155.66 549.22 158.16 546.06 159.29 C 539.17 161.73 530.78 159.51 526.26 153.70 C 521.90 148.35 521.43 140.12 525.43 134.44 C 529.33 128.85 536.33 126.04 543.02 126.20 C 546.95 126.13 550.70 127.45 554.45 128.44 C 553.60 124.31 551.30 120.11 546.89 119.06 C 541.64 117.04 536.20 119.74 532.96 123.93 C 529.92 122.53 526.87 121.12 523.86 119.66 C 526.38 115.10 530.09 110.95 535.20 109.35 M 537.15 137.22 C 533.67 139.01 532.04 144.12 534.74 147.23 C 538.31 151.08 544.65 150.71 548.61 147.65 C 551.91 145.45 553.22 141.54 554.46 137.97 C 549.14 135.38 542.55 134.22 537.15 137.22 Z"/>
<path fill="#ffffff" opacity="1.00" d=" M 239.42 111.63 C 246.10 110.15 253.41 111.91 258.55 116.46 C 269.49 125.91 269.49 145.08 258.53 154.51 C 251.73 160.66 240.92 161.53 233.11 156.86 C 223.23 151.10 219.38 138.11 222.75 127.48 C 225.01 119.76 231.49 113.33 239.42 111.63 M 240.40 121.41 C 232.55 124.23 229.81 134.20 232.62 141.51 C 234.51 147.26 240.84 151.56 246.91 149.90 C 253.72 148.17 257.61 140.67 256.74 133.97 C 256.81 125.96 248.38 118.30 240.40 121.41 Z"/>
<path fill="#ffffff" opacity="1.00" d=" M 288.39 111.61 C 295.76 109.99 303.90 112.39 309.03 117.98 C 317.13 126.46 317.99 140.65 311.28 150.20 C 307.28 156.17 300.23 160.01 293.01 159.81 C 286.04 159.99 279.29 156.29 275.29 150.66 C 269.56 142.66 268.93 131.38 273.71 122.77 C 276.70 117.18 282.18 112.96 288.39 111.61 M 289.39 121.39 C 281.52 124.14 278.51 134.25 281.52 141.57 C 283.54 147.49 290.32 151.89 296.52 149.69 C 303.93 147.35 307.07 138.54 305.34 131.44 C 304.09 124.44 296.41 118.70 289.39 121.39 Z"/>
<path fill="#ffffff" opacity="1.00" d=" M 321.05 139.08 C 319.06 126.87 327.39 113.01 340.10 111.28 C 345.37 110.32 350.31 112.80 354.32 115.98 C 354.46 115.13 354.73 113.43 354.87 112.57 C 357.95 112.58 361.03 112.59 364.12 112.63 C 364.19 126.09 364.18 139.55 364.14 153.01 C 363.86 160.42 363.60 168.61 358.63 174.60 C 352.33 182.54 339.81 183.93 331.48 178.49 C 327.31 175.94 324.60 171.72 322.58 167.39 C 325.34 166.11 328.10 164.84 330.87 163.58 C 332.48 165.78 333.92 168.20 336.10 169.90 C 340.94 173.65 349.03 172.53 352.24 167.17 C 354.65 163.53 354.50 159.02 354.66 154.84 C 351.16 157.22 347.46 159.92 343.01 159.79 C 331.61 160.30 322.27 149.87 321.05 139.08 M 339.41 121.46 C 329.48 125.45 327.92 140.49 335.71 147.30 C 339.53 150.86 345.79 151.25 349.87 147.90 C 357.00 142.02 357.10 129.85 350.42 123.58 C 347.51 120.94 343.09 119.91 339.41 121.46 Z"/>
<path fill="#ffffff" opacity="1.00" d=" M 398.66 113.68 C 404.92 109.98 413.43 110.25 419.26 114.71 C 424.11 118.18 426.60 123.82 428.75 129.18 C 418.82 134.17 408.44 138.21 398.45 143.08 C 400.72 146.41 403.62 149.97 408.01 150.17 C 413.33 151.10 417.61 147.23 420.98 143.68 C 423.46 145.59 425.96 147.50 428.35 149.53 C 425.00 153.24 421.44 157.13 416.53 158.69 C 410.12 160.81 402.58 160.04 397.11 155.93 C 383.69 146.14 384.26 122.30 398.66 113.68 M 396.80 134.76 C 403.66 131.68 410.58 128.74 417.30 125.37 C 414.68 122.07 410.51 119.39 406.17 120.93 C 400.06 122.56 397.04 128.87 396.80 134.76 Z"/>
<path fill="#ffffff" opacity="1.00" d=" M 568.28 110.84 C 572.01 110.87 575.87 110.25 579.51 111.34 C 584.14 121.94 587.69 132.99 592.14 143.67 C 596.49 132.86 600.18 121.79 604.09 110.80 C 607.97 110.76 611.86 110.76 615.76 110.84 C 606.64 134.29 597.04 157.55 587.76 180.94 C 584.10 181.11 580.43 181.13 576.76 181.07 C 579.50 173.62 583.11 166.53 586.09 159.18 C 586.93 157.56 586.49 155.79 585.81 154.21 C 579.83 139.82 573.87 125.40 568.28 110.84 Z"/>
</g>
<g id="#40afc0ff">
<path fill="#40afc0" opacity="1.00" d=" M 48.56 92.76 C 51.95 96.46 55.33 100.17 58.76 103.83 C 59.58 104.69 60.39 105.57 61.21 106.44 C 54.21 107.62 47.32 109.37 40.59 111.64 C 35.78 113.45 30.56 113.79 25.53 112.73 C 25.53 107.42 25.53 102.10 25.62 96.79 C 33.49 97.28 41.07 94.82 48.56 92.76 Z"/>
</g>
<g id="#c0f6a5ff">
<path fill="#c0f6a5" opacity="1.00" d=" M 70.94 101.87 C 73.54 101.23 75.19 98.97 76.94 97.13 C 83.11 100.73 89.26 104.36 95.38 108.03 C 90.05 114.06 84.70 120.10 78.81 125.59 C 76.36 122.96 73.87 120.37 71.44 117.73 C 68.01 113.98 64.67 110.15 61.21 106.44 C 60.39 105.57 59.58 104.69 58.76 103.83 C 62.84 103.30 66.97 103.01 70.94 101.87 Z"/>
</g>
<g id="#49c3c5ff">
<path fill="#49c3c5" opacity="1.00" d=" M 40.59 111.64 C 47.32 109.37 54.21 107.62 61.21 106.44 C 64.67 110.15 68.01 113.98 71.44 117.73 C 59.98 120.89 48.37 123.51 37.04 127.17 C 33.25 128.69 29.16 128.21 25.49 126.62 C 25.54 121.99 25.57 117.36 25.53 112.73 C 30.56 113.79 35.78 113.45 40.59 111.64 Z"/>
</g>
<g id="#ffa277ff">
<path fill="#ffa277" opacity="1.00" d=" M 95.38 108.03 C 99.87 110.58 104.33 113.19 108.69 115.96 C 103.39 124.37 93.44 127.39 86.41 133.92 C 84.01 131.31 81.64 128.68 79.25 126.07 L 78.81 125.59 C 84.70 120.10 90.05 114.06 95.38 108.03 Z"/>
</g>
<g id="#ffc075ff">
<path fill="#ffc075" opacity="1.00" d=" M 86.41 133.92 C 93.44 127.39 103.39 124.37 108.69 115.96 C 112.33 118.05 116.22 119.82 119.44 122.56 C 120.83 123.76 121.65 125.87 120.76 127.61 C 119.62 129.81 117.31 130.99 115.31 132.28 C 108.64 136.14 102.02 140.09 95.35 143.95 C 92.43 140.55 89.44 137.22 86.41 133.92 Z"/>
</g>
<g id="#51d6caff">
<path fill="#51d6ca" opacity="1.00" d=" M 37.04 127.17 C 48.37 123.51 59.98 120.89 71.44 117.73 C 73.87 120.37 76.36 122.96 78.81 125.59 L 79.25 126.07 C 77.96 127.36 76.67 128.65 75.42 129.98 C 66.56 129.64 58.10 132.61 49.59 134.62 C 44.28 135.86 39.16 137.87 33.82 138.98 C 30.96 139.66 28.17 138.47 25.49 137.62 C 25.55 133.95 25.57 130.28 25.49 126.62 C 29.16 128.21 33.25 128.69 37.04 127.17 Z"/>
</g>
<g id="#da405eff">
<path fill="#da405e" opacity="1.00" d=" M 79.25 126.07 C 81.64 128.68 84.01 131.31 86.41 133.92 C 89.44 137.22 92.43 140.55 95.35 143.95 C 87.69 148.39 80.31 153.36 72.29 157.13 C 72.49 150.37 71.37 143.62 68.90 137.32 C 71.13 134.93 73.21 132.40 75.42 129.98 C 76.67 128.65 77.96 127.36 79.25 126.07 Z"/>
</g>
<g id="#57e7ceff">
<path fill="#57e7ce" opacity="1.00" d=" M 49.59 134.62 C 58.10 132.61 66.56 129.64 75.42 129.98 C 73.21 132.40 71.13 134.93 68.90 137.32 C 66.83 139.53 64.68 141.64 62.60 143.83 C 53.65 144.11 45.42 147.89 36.85 150.03 C 33.12 151.06 29.23 150.45 25.51 149.70 C 25.54 145.67 25.56 141.65 25.49 137.62 C 28.17 138.47 30.96 139.66 33.82 138.98 C 39.16 137.87 44.28 135.86 49.59 134.62 Z"/>
</g>
<g id="#c33c80ff">
<path fill="#c33c80" opacity="1.00" d=" M 62.60 143.83 C 64.68 141.64 66.83 139.53 68.90 137.32 C 71.37 143.62 72.49 150.37 72.29 157.13 C 67.17 161.38 60.92 163.95 55.39 167.60 C 54.32 163.78 52.97 160.05 51.23 156.49 C 55.07 152.31 58.76 148.01 62.60 143.83 Z"/>
</g>
<g id="#62fdd4ff">
<path fill="#62fdd4" opacity="1.00" d=" M 36.85 150.03 C 45.42 147.89 53.65 144.11 62.60 143.83 C 58.76 148.01 55.07 152.31 51.23 156.49 C 43.44 164.84 35.46 173.04 28.14 181.83 C 26.35 179.24 25.17 176.24 25.47 173.04 C 25.49 165.26 25.60 157.48 25.51 149.70 C 29.23 150.45 33.12 151.06 36.85 150.03 Z"/>
</g>
<g id="#ac38a5ff">
<path fill="#ac38a5" opacity="1.00" d=" M 28.14 181.83 C 35.46 173.04 43.44 164.84 51.23 156.49 C 52.97 160.05 54.32 163.78 55.39 167.60 C 49.34 171.12 43.31 174.68 37.34 178.35 C 34.53 180.10 31.38 181.21 28.14 181.83 Z"/>
</g>
<g id="#1a1a1aff">
<path fill="#1a1a1a" opacity="1.00" d=" M 23.68 213.13 C 37.45 212.72 51.22 213.05 65.00 212.94 C 202.00 212.95 339.00 212.94 476.00 212.94 C 524.11 213.06 572.22 212.70 620.32 213.13 C 618.64 213.59 616.94 213.98 615.22 214.22 C 567.49 213.74 519.74 214.14 472.00 214.01 C 337.00 214.01 202.00 214.01 67.00 214.01 C 54.26 214.05 41.52 213.86 28.78 214.21 C 27.05 214.02 25.36 213.54 23.68 213.13 Z"/>
</g>
<g id="#1c1c1c23">
<path fill="#1c1c1c" opacity="0.14" d=" M 28.78 214.21 C 41.52 213.86 54.26 214.05 67.00 214.01 C 202.00 214.01 337.00 214.01 472.00 214.01 C 519.74 214.14 567.49 213.74 615.22 214.22 C 613.17 214.61 611.11 214.96 609.05 215.12 C 421.37 215.00 233.68 215.12 46.00 215.06 C 40.25 215.12 34.43 215.58 28.78 214.21 Z"/>
</g>
</svg>
