<svg width="108" height="16" xmlns="http://www.w3.org/2000/svg">

 <g>
  <title>background</title>
  <rect fill="none" id="canvas_background" height="602" width="802" y="-1" x="-1"/>
 </g>
 <g>
  <title>Layer 1</title>
  <path id="svg_1" fill="#ffffff" d="m32.0958,12.8087l-3.0958,0l2.6458,-10.63334l5.8136,0c1.0319,0 1.8778,0.29759 2.5378,0.89276c0.6599,0.58454 0.9899,1.30193 0.9899,2.15217c0,0.42512 -0.09,0.85556 -0.27,1.2913c-0.1679,0.43575 -0.4379,0.86619 -0.8099,1.29131c-0.36,0.42512 -0.8939,0.77053 -1.6019,1.03623c-0.6959,0.2657 -1.5119,0.39855 -2.4478,0.39855l-2.8798,0l-0.8819,3.57102zm1.4759,-5.96232l2.4478,0c0.5039,0 0.9239,-0.12223 1.2599,-0.36667c0.336,-0.25507 0.504,-0.57391 0.504,-0.95652c0,-0.29759 -0.114,-0.5314 -0.342,-0.70145c-0.228,-0.17005 -0.528,-0.25507 -0.9,-0.25507l-2.3938,0l-0.5759,2.27971z"/>
  <path id="svg_2" fill="#ffffff" d="m50.928,12.8087l-3.3657,0l-0.216,-1.5304l-4.7337,0l-0.9539,1.5304l-3.6717,0l7.1634,-10.63334l3.8878,0l1.8898,10.63334zm-3.8157,-3.92174l-0.54,-4.00145l-2.5198,4.00145l3.0598,0z"/>
  <path id="svg_3" fill="#ffffff" d="m62.9739,12.8087l-2.9878,0l-3.4917,-6.34493l-1.5839,6.34493l-3.0958,0l2.6458,-10.63334l3.1858,0l3.3478,6.04203l1.5118,-6.04203l3.1138,0l-2.6458,10.63334z"/>
  <path id="svg_4" fill="#ffffff" d="m70.37237,12.8087l-5.0216,0l2.6458,-10.63334l4.9496,0c1.4039,0 2.6398,0.43044 3.7077,1.29131c1.08,0.86087 1.6199,1.95555 1.6199,3.28405c0,0.57392 -0.084,1.1372 -0.252,1.68986c-0.1679,0.54203 -0.4499,1.08406 -0.8459,1.62612c-0.396,0.5314 -0.8879,0.999 -1.4759,1.4029c-0.5879,0.4038 -1.3439,0.728 -2.2678,0.9724c-0.912,0.2445 -1.9319,0.3667 -3.0598,0.3667zm0.576,-2.3913c1.2479,0 2.2438,-0.3348 2.9877,-1.00436c0.756,-0.66956 1.134,-1.49323 1.134,-2.47101c0,-0.66957 -0.252,-1.23285 -0.756,-1.68986c-0.5039,-0.457 -1.1459,-0.6855 -1.9258,-0.6855l-1.8899,0l-1.4579,5.85073l1.9079,0z"/>
  <path id="svg_5" fill="#ffffff" d="m81.3109,12.8087l-3.0958,0l2.6458,-10.63334l3.0958,0l-2.6458,10.63334z"/>
  <path id="svg_6" fill="#ffffff" d="m90.0941,13c-1.7158,0 -3.1617,-0.4357 -4.3377,-1.3072c-1.1639,-0.8822 -1.7458,-2.05657 -1.7458,-3.52323c0,-1.77488 0.6899,-3.24686 2.0698,-4.41595c1.3919,-1.16908 3.1678,-1.75362 5.3276,-1.75362c1.2599,0 2.3219,0.27101 3.1858,0.81304c0.8759,0.54203 1.4999,1.20097 1.8719,1.97682l-2.8438,1.05217c-0.156,-0.39324 -0.486,-0.72802 -0.99,-1.00435c-0.4919,-0.27633 -1.0499,-0.41449 -1.6738,-0.41449c-1.02,0 -1.8959,0.34541 -2.6278,1.03623c-0.732,0.69082 -1.098,1.53575 -1.098,2.53478c0,0.72271 0.27,1.33382 0.81,1.83334c0.5519,0.49956 1.2959,0.74926 2.2318,0.74926c0.72,0 1.3919,-0.2125 2.0159,-0.63767l0.1979,-0.84493l-2.6997,0l0.6119,-2.3913l5.7776,0l-1.0619,4.2406c-0.588,0.6483 -1.3139,1.1531 -2.1779,1.5145c-0.8639,0.3613 -1.8119,0.542 -2.8438,0.542z"/>
  <path id="svg_7" fill="#ffffff" d="m108,12.8087l-3.366,0l-0.216,-1.5304l-4.7334,0l-0.9539,1.5304l-3.6718,0l7.1631,-10.63334l3.888,0l1.89,10.63334zm-3.816,-3.92174l-0.54,-4.00145l-2.519,4.00145l3.059,0z"/>
  <rect x="2.23404" id="svg_8" fill="#ffffff" transform="rotate(-45 7.840242862701414,8.002505302429197) " height="11.2124" width="11.2124" y="2.3963"/>
  <rect id="svg_9" fill="#ffffff" transform="rotate(-45 20.870126724243157,8.029383659362791) " height="5.22863" width="5.22863" y="5.41507" x="18.25581"/>
  <rect id="svg_10" fill="#ffffff" transform="rotate(-45 16.57810401916504,4.675166130065916) " height="3.68988" width="3.68988" y="2.83023" x="14.73316"/>
  <rect id="svg_11" fill="#ffffff" transform="rotate(-45 16.578104019165036,11.720244407653805) " height="3.68988" width="3.68988" y="9.8753" x="14.73316" opacity="0.55"/>
 </g>
</svg>