<svg width="178" height="23" viewBox="0 0 108 16" fill="none" xmlns="http://www.w3.org/2000/svg">
<path d="M32.0958 12.8087H29L31.6458 2.17536H37.4594C38.4913 2.17536 39.3372 2.47295 39.9972 3.06812C40.6571 3.65266 40.9871 4.37005 40.9871 5.22029C40.9871 5.64541 40.8971 6.07585 40.7171 6.51159C40.5492 6.94734 40.2792 7.37778 39.9072 7.8029C39.5472 8.22802 39.0133 8.57343 38.3053 8.83913C37.6094 9.10483 36.7934 9.23768 35.8575 9.23768H32.9777L32.0958 12.8087ZM33.5717 6.84638H36.0195C36.5234 6.84638 36.9434 6.72415 37.2794 6.47971C37.6154 6.22464 37.7834 5.9058 37.7834 5.52319C37.7834 5.2256 37.6694 4.99179 37.4414 4.82174C37.2134 4.65169 36.9134 4.56667 36.5414 4.56667H34.1476L33.5717 6.84638Z" fill="black"/>
<path d="M50.928 12.8087H47.5623L47.3463 11.2783H42.6126L41.6587 12.8087H37.987L45.1504 2.17536H49.0382L50.928 12.8087ZM47.1123 8.88696L46.5723 4.88551L44.0525 8.88696H47.1123Z" fill="black"/>
<path d="M62.9739 12.8087H59.9861L56.4944 6.46377L54.9105 12.8087H51.8147L54.4605 2.17536H57.6463L60.9941 8.21739L62.5059 2.17536H65.6197L62.9739 12.8087Z" fill="black"/>
<path d="M70.1596 12.8087H65.138L67.7838 2.17536H72.7334C74.1373 2.17536 75.3732 2.6058 76.4411 3.46667C77.5211 4.32754 78.061 5.42222 78.061 6.75072C78.061 7.32464 77.977 7.88792 77.809 8.44058C77.6411 8.98261 77.3591 9.52464 76.9631 10.0667C76.5671 10.5981 76.0752 11.0657 75.4872 11.4696C74.8993 11.8734 74.1433 12.1976 73.2194 12.442C72.3074 12.6865 71.2875 12.8087 70.1596 12.8087ZM70.7356 10.4174C71.9835 10.4174 72.9794 10.0826 73.7233 9.41304C74.4793 8.74348 74.8573 7.91981 74.8573 6.94203C74.8573 6.27246 74.6053 5.70918 74.1013 5.25217C73.5974 4.79517 72.9554 4.56667 72.1755 4.56667H70.2856L68.8277 10.4174H70.7356Z" fill="black"/>
<path d="M81.3109 12.8087H78.2151L80.8609 2.17536H83.9567L81.3109 12.8087Z" fill="black"/>
<path d="M90.0941 13C88.3783 13 86.9324 12.5643 85.7564 11.6928C84.5925 10.8106 84.0106 9.63623 84.0106 8.16957C84.0106 6.39469 84.7005 4.92271 86.0804 3.75362C87.4723 2.58454 89.2482 2 91.408 2C92.6679 2 93.7299 2.27101 94.5938 2.81304C95.4697 3.35507 96.0937 4.01401 96.4657 4.78986L93.6219 5.84203C93.4659 5.44879 93.1359 5.11401 92.6319 4.83768C92.14 4.56135 91.582 4.42319 90.9581 4.42319C89.9381 4.42319 89.0622 4.7686 88.3303 5.45942C87.5983 6.15024 87.2323 6.99517 87.2323 7.9942C87.2323 8.71691 87.5023 9.32802 88.0423 9.82754C88.5942 10.3271 89.3382 10.5768 90.2741 10.5768C90.9941 10.5768 91.666 10.3643 92.29 9.93913L92.4879 9.0942H89.7882L90.4001 6.7029H96.1777L95.1158 10.9435C94.5278 11.5918 93.8019 12.0966 92.9379 12.458C92.074 12.8193 91.126 13 90.0941 13Z" fill="black"/>
<path d="M108 12.8087H104.634L104.418 11.2783H99.6846L98.7307 12.8087H95.0589L102.222 2.17536H106.11L108 12.8087ZM104.184 8.88696L103.644 4.88551L101.125 8.88696H104.184Z" fill="black"/>
<rect y="7.92822" width="11.2124" height="11.2124" transform="rotate(-45 0 7.92822)" fill="url(#paint0_linear)"/>
<rect x="17.0856" y="7.96826" width="5.22863" height="5.22863" transform="rotate(-45 17.0856 7.96826)" fill="url(#paint1_linear)"/>
<rect x="13.8821" y="4.74512" width="3.68988" height="3.68988" transform="rotate(-45 13.8821 4.74512)" fill="url(#paint2_linear)"/>
<rect opacity="0.55" x="13.8821" y="11.1519" width="3.68988" height="3.68988" transform="rotate(-45 13.8821 11.1519)" fill="url(#paint3_linear)"/>
<defs>
<linearGradient id="paint0_linear" x1="9.19287" y1="8.43762" x2="2.01957" y2="18.6313" gradientUnits="userSpaceOnUse">
<stop stop-color="#FE0002"/>
<stop offset="1" stop-color="#B40001"/>
</linearGradient>
<linearGradient id="paint1_linear" x1="21.3724" y1="8.20581" x2="18.0273" y2="12.9593" gradientUnits="userSpaceOnUse">
<stop stop-color="#FE0002"/>
<stop offset="1" stop-color="#B40001"/>
</linearGradient>
<linearGradient id="paint2_linear" x1="16.9073" y1="4.91275" x2="14.5467" y2="8.26737" gradientUnits="userSpaceOnUse">
<stop stop-color="#FE0002"/>
<stop offset="1" stop-color="#B40001"/>
</linearGradient>
<linearGradient id="paint3_linear" x1="16.9073" y1="11.3195" x2="14.5467" y2="14.6741" gradientUnits="userSpaceOnUse">
<stop stop-color="#FE0002"/>
<stop offset="1" stop-color="#B40001"/>
</linearGradient>
</defs>
</svg>
